<svg width="22" height="19" viewBox="0 0 22 19" fill="none" xmlns="http://www.w3.org/2000/svg">
<path d="M18.7616 18.8692L14.7155 14.8538C14.2027 15.0435 13.6344 15.1987 13.0107 15.3192C12.3869 15.4397 11.7167 15.5 11.0001 15.5C8.65009 15.5 6.53664 14.8538 4.65972 13.5615C2.78281 12.2692 1.40909 10.582 0.538574 8.49998C0.907808 7.61665 1.38473 6.79261 1.96935 6.02786C2.55397 5.26312 3.19756 4.59999 3.90012 4.03846L1.13087 1.23846L2.18472 0.184631L19.8154 17.8153L18.7616 18.8692ZM11.0001 12.5769C11.2091 12.5769 11.4232 12.5589 11.6424 12.523C11.8616 12.4871 12.0565 12.4346 12.227 12.3653L7.13472 7.27303C7.06549 7.45637 7.01292 7.65605 6.97702 7.87208C6.94112 8.08811 6.92317 8.29741 6.92317 8.49998C6.92317 9.63458 7.31901 10.5977 8.11067 11.3894C8.90234 12.181 9.86548 12.5769 11.0001 12.5769ZM17.9539 13.0846L14.8174 9.97303C14.8956 9.76022 14.9584 9.53202 15.0058 9.28843C15.0533 9.04485 15.077 8.78203 15.077 8.49998C15.077 7.36538 14.6811 6.40225 13.8895 5.61058C13.0978 4.81892 12.1347 4.42308 11.0001 4.42308C10.718 4.42308 10.4584 4.44841 10.2212 4.49906C9.98407 4.54969 9.75587 4.62565 9.53665 4.72693L7.03472 2.23463C7.66677 1.98335 8.31228 1.79809 8.97125 1.67886C9.63022 1.55962 10.3065 1.50001 11.0001 1.50001C13.3437 1.50001 15.4571 2.14616 17.3404 3.43846C19.2238 4.73077 20.5975 6.41795 21.4616 8.49998C21.0911 9.39357 20.6125 10.2275 20.026 11.0019C19.4395 11.7762 18.7488 12.4705 17.9539 13.0846ZM13.6847 8.84998L10.6751 5.84998C11.1161 5.76665 11.5324 5.79934 11.9241 5.94806C12.3158 6.09677 12.6533 6.31792 12.9366 6.61151C13.2263 6.90511 13.4385 7.24934 13.5732 7.64421C13.7078 8.03907 13.745 8.441 13.6847 8.84998Z" fill="#2E2E2E"/>
</svg>
