<svg width="46" height="46" viewBox="0 0 46 46" fill="none" xmlns="http://www.w3.org/2000/svg">
<path d="M9.05352 35.3487C11.0368 33.877 13.1974 32.7148 15.5352 31.8622C17.873 31.0097 20.3612 30.5834 22.9996 30.5834C25.6381 30.5834 28.1262 31.0097 30.464 31.8622C32.8018 32.7148 34.9624 33.877 36.9457 35.3487C38.3966 33.7543 39.5461 31.9086 40.3942 29.8116C41.2422 27.7145 41.6663 25.444 41.6663 23C41.6663 17.8278 39.8482 13.4236 36.2121 9.78748C32.576 6.15137 28.1718 4.33332 22.9996 4.33332C17.8274 4.33332 13.4232 6.15137 9.78712 9.78748C6.151 13.4236 4.33295 17.8278 4.33295 23C4.33295 25.444 4.75699 27.7145 5.60508 29.8116C6.45317 31.9086 7.60265 33.7543 9.05352 35.3487ZM22.9996 24.7499C20.8697 24.7499 19.0734 24.0185 17.6105 22.5557C16.1477 21.0929 15.4163 19.2966 15.4163 17.1667C15.4163 15.0367 16.1477 13.2404 17.6105 11.7776C19.0734 10.3148 20.8697 9.58337 22.9996 9.58337C25.1295 9.58337 26.9259 10.3148 28.3887 11.7776C29.8515 13.2404 30.5829 15.0367 30.5829 17.1667C30.5829 19.2966 29.8515 21.0929 28.3887 22.5557C26.9259 24.0185 25.1295 24.7499 22.9996 24.7499ZM22.9996 45.1666C19.9214 45.1666 17.0339 44.5877 14.3372 43.43C11.6404 42.2723 9.29434 40.6959 7.29903 38.7006C5.30375 36.7053 3.72727 34.3592 2.56959 31.6624C1.41187 28.9657 0.833008 26.0782 0.833008 23C0.833008 19.9218 1.41187 17.0343 2.56959 14.3375C3.72727 11.6408 5.30375 9.2947 7.29903 7.29939C9.29434 5.30412 11.6404 3.72764 14.3372 2.56996C17.0339 1.41224 19.9214 0.833374 22.9996 0.833374C26.0778 0.833374 28.9653 1.41224 31.6621 2.56996C34.3588 3.72764 36.7049 5.30412 38.7002 7.29939C40.6955 9.2947 42.272 11.6408 43.4296 14.3375C44.5874 17.0343 45.1662 19.9218 45.1662 23C45.1662 26.0782 44.5874 28.9657 43.4296 31.6624C42.272 34.3592 40.6955 36.7053 38.7002 38.7006C36.7049 40.6959 34.3588 42.2723 31.6621 43.43C28.9653 44.5877 26.0778 45.1666 22.9996 45.1666Z" fill="#FFC000"/>
</svg>
