<svg width="28" height="44" viewBox="0 0 28 44" fill="none" xmlns="http://www.w3.org/2000/svg">
<path d="M13.8474 43.5384C12.3372 43.5384 10.8719 43.3776 9.45158 43.0561C8.03128 42.7346 6.7458 42.3237 5.59516 41.8236C3.94114 41.1091 2.59511 40.2398 1.55709 39.2158C0.51903 38.1917 0 37.0509 0 35.7934V23.3433C0 22.2294 0.420932 21.205 1.2628 20.2699C2.10467 19.3349 3.18834 18.5078 4.51383 17.7885C5.8751 17.0693 7.37689 16.5145 9.01921 16.1241C10.6615 15.7337 12.3217 15.5385 13.9999 15.5385C15.6782 15.5385 17.3384 15.7337 18.9807 16.1241C20.623 16.5145 22.1248 17.0691 23.4861 17.7881C24.8474 18.507 25.94 19.3337 26.7639 20.2683C27.5879 21.2029 27.9999 22.2273 27.9999 23.3416V35.7968C27.9999 36.4079 27.8658 37.0006 27.5976 37.5749C27.3294 38.1493 26.945 38.6878 26.4444 39.1903C25.9438 39.6929 25.3562 40.1685 24.6816 40.6172C24.007 41.0659 23.2599 41.4698 22.4402 41.8288C22.4791 41.649 22.5375 41.1457 22.6152 40.3189C22.6152 38.2337 21.8784 36.4542 20.4048 34.9802C18.9311 33.5062 17.1551 32.7692 15.0768 32.7692C13.5285 32.7692 12.1603 33.179 10.972 33.9987C9.78382 34.8183 8.88909 35.8758 8.28782 37.1711C9.42754 37.4822 10.4744 37.6886 11.4285 37.7903C12.3826 37.892 13.2196 37.9429 13.9396 37.9429C14.5517 37.9429 15.0467 37.9234 15.4247 37.8845C15.8028 37.8457 16.0458 37.8262 16.1538 37.8262V43.4217C15.7559 43.4755 15.3678 43.5084 14.9893 43.5204C14.6109 43.5324 14.2303 43.5384 13.8474 43.5384ZM20.4551 31.6923C21.638 31.6923 22.6527 31.2711 23.4992 30.4288C24.3458 29.5864 24.7691 28.5738 24.7691 27.391C24.7691 26.2081 24.3464 25.1934 23.5009 24.3468C22.6555 23.5002 21.6391 23.0769 20.4519 23.0769C19.2647 23.0769 18.2515 23.4997 17.4124 24.3451C16.5733 25.1906 16.1538 26.2069 16.1538 27.3942C16.1538 28.5814 16.5749 29.5945 17.4173 30.4336C18.2596 31.2727 19.2722 31.6923 20.4551 31.6923ZM13.9999 13.3847C15.7948 13.3847 17.3204 12.7625 18.5768 11.5181C19.8333 10.2736 20.4615 8.73903 20.4615 6.91433C20.4615 5.12536 19.8329 3.60269 18.5759 2.3463C17.3189 1.08988 15.7925 0.46167 13.9968 0.46167C12.1651 0.46167 10.6308 1.08988 9.39388 2.3463C8.15691 3.60269 7.53842 5.12832 7.53842 6.92319C7.53842 8.74199 8.15764 10.2736 9.3961 11.5181C10.6346 12.7625 12.1692 13.3847 13.9999 13.3847Z" fill="#FFC000"/>
</svg>
