<?xml version="1.0" standalone="no"?>
<!DOCTYPE svg PUBLIC "-//W3C//DTD SVG 20010904//EN"
 "http://www.w3.org/TR/2001/REC-SVG-20010904/DTD/svg10.dtd">
<svg version="1.0" xmlns="http://www.w3.org/2000/svg"
 width="500.000000pt" height="484.000000pt" viewBox="0 0 500.000000 484.000000"
 preserveAspectRatio="xMidYMid meet">

<g transform="translate(0.000000,484.000000) scale(0.100000,-0.100000)"
fill="#000000" stroke="none">
<path d="M3285 3868 c-39 -21 -84 -71 -90 -100 -5 -22 -12 -28 -34 -28 -45 0
-114 -41 -133 -80 -20 -39 -23 -103 -8 -167 7 -31 6 -52 -5 -83 -34 -96 -6
-171 75 -202 59 -22 143 -23 161 -2 23 27 -2 48 -66 56 -106 14 -132 51 -95
136 21 48 21 52 6 103 -21 70 -20 101 5 133 18 23 28 26 79 26 64 0 80 13 80
64 0 14 11 38 24 53 21 24 32 28 76 28 46 0 54 -3 78 -33 32 -39 64 -42 80 -8
8 17 24 28 54 36 67 17 68 18 68 44 0 41 -49 48 -118 16 -42 -19 -43 -19 -75
0 -36 22 -128 27 -162 8z"/>
<path d="M3728 3849 c-50 -22 -68 -50 -48 -74 16 -20 28 -19 78 5 84 41 138
15 161 -75 10 -41 14 -45 49 -50 66 -10 109 -25 123 -41 19 -23 14 -78 -10
-120 -25 -42 -26 -57 -6 -74 23 -19 50 -3 74 47 61 126 22 216 -107 248 -41
10 -50 17 -68 56 -35 72 -65 93 -137 96 -47 3 -73 -2 -109 -18z"/>
<path d="M4105 3345 c-3 -14 -7 -36 -10 -49 -6 -29 -24 -38 -94 -45 -52 -6
-56 -8 -80 -49 -41 -69 -85 -84 -174 -60 -39 10 -46 9 -74 -11 -47 -35 -101
-38 -146 -7 -46 31 -59 32 -96 5 -37 -28 -89 -27 -139 2 -34 20 -42 21 -56 10
-36 -30 -5 -73 73 -99 47 -16 79 -15 125 6 38 17 41 17 75 0 47 -24 122 -23
172 2 34 18 47 19 91 11 76 -13 137 8 184 63 30 36 45 45 92 56 67 15 106 49
122 108 13 52 0 82 -35 82 -18 0 -26 -7 -30 -25z"/>
<path d="M3145 2966 c-77 -29 -97 -86 -45 -130 70 -58 225 -43 258 26 16 34 0
74 -39 94 -43 22 -128 26 -174 10z m129 -75 c3 -5 -8 -11 -24 -15 -35 -6 -90
3 -90 15 0 12 107 12 114 0z"/>
<path d="M2880 2811 c-66 -35 -64 -102 3 -134 50 -24 153 -23 194 3 65 39 65
91 1 130 -44 27 -149 28 -198 1z m148 -60 c19 -11 -8 -21 -58 -21 -37 0 -56
10 -43 24 9 9 86 7 101 -3z"/>
<path d="M1812 2668 c-458 -57 -757 -311 -832 -708 -16 -83 -13 -266 5 -356
16 -73 16 -85 -1 -184 -20 -119 -23 -330 -5 -402 34 -143 98 -236 197 -284 42
-20 77 -29 141 -33 l86 -6 26 -100 c43 -164 92 -226 220 -277 44 -17 77 -22
156 -22 120 0 172 20 237 93 l42 47 31 -40 c131 -172 496 -121 583 82 12 26
31 87 43 135 l21 87 77 0 c134 0 224 42 297 137 89 116 113 376 60 633 -12 55
-11 77 1 150 19 107 12 286 -15 385 -45 163 -101 264 -211 378 -149 154 -336
240 -616 282 -111 17 -421 19 -543 3z m623 -86 c403 -89 631 -308 694 -666 22
-123 7 -332 -26 -369 -9 -9 -84 -63 -167 -120 -192 -129 -312 -244 -357 -341
-28 -59 -31 -75 -27 -130 3 -34 15 -80 26 -102 l21 -41 -256 -7 c-140 -4 -367
-4 -504 0 l-248 7 22 41 c34 64 31 173 -7 246 -44 85 -178 210 -351 327 -83
56 -160 112 -172 125 -29 32 -44 113 -44 245 0 437 268 719 757 798 134 22
518 14 639 -13z m-1326 -1140 c20 -16 83 -60 141 -98 133 -87 279 -229 305
-296 37 -100 -2 -206 -95 -255 -39 -21 -56 -24 -130 -21 -207 9 -295 136 -294
428 0 114 18 270 31 270 3 0 22 -13 42 -28z m2025 -4 c49 -270 18 -495 -83
-595 -49 -49 -97 -67 -191 -71 -74 -3 -91 0 -130 21 -101 53 -137 167 -86 271
37 76 162 191 324 299 72 49 134 93 137 98 12 18 23 9 29 -23z m-1086 -815
c-4 -116 -14 -146 -65 -197 -66 -67 -174 -84 -297 -46 -71 22 -127 64 -152
113 -20 37 -65 217 -58 229 3 4 134 8 291 8 l285 0 -4 -107z m622 -4 c-36
-140 -61 -179 -146 -220 -113 -56 -251 -51 -327 12 -59 49 -77 99 -77 217 l0
102 289 0 289 0 -28 -111z"/>
<path d="M1936 1734 c-19 -19 -20 -26 -4 -42 17 -17 45 -15 52 4 10 25 7 33
-13 44 -15 7 -23 6 -35 -6z"/>
<path d="M2224 1736 c-20 -15 -14 -43 12 -53 20 -8 47 19 39 39 -9 23 -30 29
-51 14z"/>
<path d="M1974 1565 c-9 -22 11 -42 61 -61 50 -19 93 -14 143 16 62 38 31 75
-34 41 -48 -26 -60 -26 -109 -1 -47 24 -54 25 -61 5z"/>
</g>
</svg>
