<svg width="16" height="18" viewBox="0 0 16 18" fill="none" xmlns="http://www.w3.org/2000/svg">
<path d="M3.3077 17.4998C2.80257 17.4998 2.375 17.3248 2.025 16.9748C1.675 16.6248 1.5 16.1972 1.5 15.6921V2.99981H1.25C1.03718 2.99981 0.858983 2.92802 0.7154 2.78443C0.5718 2.64085 0.5 2.46265 0.5 2.24983C0.5 2.03702 0.5718 1.85882 0.7154 1.71523C0.858983 1.57163 1.03718 1.49983 1.25 1.49983H4.99997C4.99997 1.24857 5.08779 1.03832 5.26342 0.869084C5.43907 0.699851 5.65254 0.615234 5.90382 0.615234H10.0961C10.3474 0.615234 10.5609 0.699851 10.7365 0.869084C10.9122 1.03832 11 1.24857 11 1.49983H14.75C14.9628 1.49983 15.141 1.57163 15.2845 1.71523C15.4281 1.85882 15.5 2.03702 15.5 2.24983C15.5 2.46265 15.4281 2.64085 15.2845 2.78443C15.141 2.92802 14.9628 2.99981 14.75 2.99981H14.5V15.6921C14.5 16.1972 14.325 16.6248 13.975 16.9748C13.625 17.3248 13.1974 17.4998 12.6922 17.4998H3.3077ZM2.99997 2.99981V15.6921C2.99997 15.7818 3.02883 15.8556 3.08652 15.9133C3.14422 15.971 3.21795 15.9998 3.3077 15.9998H12.6922C12.782 15.9998 12.8557 15.971 12.9134 15.9133C12.9711 15.8556 13 15.7818 13 15.6921V2.99981H2.99997ZM5.40385 13.2498C5.40385 13.4627 5.47564 13.6409 5.61922 13.7844C5.76281 13.928 5.94101 13.9998 6.15382 13.9998C6.36664 13.9998 6.54484 13.928 6.68842 13.7844C6.83202 13.6409 6.90382 13.4627 6.90382 13.2498V5.74979C6.90382 5.53697 6.83202 5.35877 6.68842 5.21518C6.54484 5.0716 6.36664 4.99981 6.15382 4.99981C5.94101 4.99981 5.76281 5.0716 5.61922 5.21518C5.47564 5.35877 5.40385 5.53697 5.40385 5.74979V13.2498ZM9.09613 13.2498C9.09613 13.4627 9.16792 13.6409 9.31152 13.7844C9.45511 13.928 9.63331 13.9998 9.84613 13.9998C10.0589 13.9998 10.2371 13.928 10.3807 13.7844C10.5243 13.6409 10.5961 13.4627 10.5961 13.2498V5.74979C10.5961 5.53697 10.5243 5.35877 10.3807 5.21518C10.2371 5.0716 10.0589 4.99981 9.84613 4.99981C9.63331 4.99981 9.45511 5.0716 9.31152 5.21518C9.16792 5.35877 9.09613 5.53697 9.09613 5.74979V13.2498ZM2.99997 2.99981V15.6921C2.99997 15.7818 3.02883 15.8556 3.08652 15.9133C3.14422 15.971 3.21795 15.9998 3.3077 15.9998H2.99997V2.99981Z" fill="#E61A1A"/>
</svg>
