<svg width="18" height="18" viewBox="0 0 18 18" fill="none" xmlns="http://www.w3.org/2000/svg">
<path d="M2.15376 15.999H3.39028L12.65 6.73938L11.4134 5.50283L2.15376 14.7625V15.999ZM15.8576 5.65478L12.4826 2.31061L13.7961 0.997156C14.0833 0.709989 14.4371 0.566406 14.8576 0.566406C15.2781 0.566406 15.6319 0.709989 15.9191 0.997156L17.1556 2.23368C17.4428 2.52085 17.5915 2.86956 17.6018 3.27981C17.612 3.69006 17.4736 4.03876 17.1864 4.32593L15.8576 5.65478ZM1.55763 17.499C1.29995 17.499 1.08489 17.4128 0.912458 17.2403C0.740025 17.0679 0.653809 16.8528 0.653809 16.5952V14.501C0.653809 14.3805 0.6756 14.2657 0.719183 14.1568C0.762767 14.0478 0.831358 13.9465 0.924958 13.8529L11.398 3.37981L14.773 6.75476L4.29988 17.2278C4.2063 17.3214 4.10503 17.39 3.99606 17.4336C3.88708 17.4772 3.77233 17.499 3.65181 17.499H1.55763Z" fill="#B1B1B1"/>
</svg>
