<svg width="20" height="20" viewBox="0 0 20 20" fill="none" xmlns="http://www.w3.org/2000/svg">
<path d="M9.99998 14.7307C10.2288 14.7307 10.4207 14.6533 10.5755 14.4985C10.7303 14.3437 10.8077 14.1519 10.8077 13.9231C10.8077 13.6942 10.7303 13.5024 10.5755 13.3476C10.4207 13.1928 10.2288 13.1154 9.99998 13.1154C9.77112 13.1154 9.5793 13.1928 9.4245 13.3476C9.2697 13.5024 9.1923 13.6942 9.1923 13.9231C9.1923 14.1519 9.2697 14.3437 9.4245 14.4985C9.5793 14.6533 9.77112 14.7307 9.99998 14.7307ZM10.0003 11.0769C10.2129 11.0769 10.391 11.005 10.5346 10.8613C10.6782 10.7175 10.75 10.5394 10.75 10.3269V5.82688C10.75 5.61439 10.6781 5.43628 10.5343 5.29253C10.3904 5.14878 10.2122 5.0769 9.99965 5.0769C9.78705 5.0769 9.60896 5.14878 9.46538 5.29253C9.32179 5.43628 9.25 5.61439 9.25 5.82688V10.3269C9.25 10.5394 9.3219 10.7175 9.4657 10.8613C9.60952 11.005 9.78772 11.0769 10.0003 11.0769ZM10.0016 19.5C8.68772 19.5 7.45268 19.2506 6.29655 18.752C5.1404 18.2533 4.13472 17.5765 3.2795 16.7217C2.42427 15.8669 1.74721 14.8616 1.24833 13.706C0.749442 12.5504 0.5 11.3156 0.5 10.0017C0.5 8.68772 0.749334 7.45268 1.248 6.29655C1.74667 5.1404 2.42342 4.13472 3.27825 3.2795C4.1331 2.42427 5.13834 1.74721 6.29398 1.24833C7.44959 0.749443 8.68437 0.5 9.9983 0.5C11.3122 0.5 12.5473 0.749334 13.7034 1.248C14.8596 1.74667 15.8652 2.42342 16.7205 3.27825C17.5757 4.1331 18.2527 5.13834 18.7516 6.29398C19.2505 7.44959 19.5 8.68437 19.5 9.9983C19.5 11.3122 19.2506 12.5473 18.752 13.7034C18.2533 14.8596 17.5765 15.8652 16.7217 16.7205C15.8669 17.5757 14.8616 18.2527 13.706 18.7516C12.5504 19.2505 11.3156 19.5 10.0016 19.5Z" fill="#E61A1A"/>
</svg>
