<svg width="87" height="86" viewBox="0 0 87 86" fill="none" xmlns="http://www.w3.org/2000/svg">
<mask id="mask0_1023_19924" style="mask-type:alpha" maskUnits="userSpaceOnUse" x="0" y="0" width="87" height="86">
<rect x="0.5" width="86" height="86" fill="#D9D9D9"/>
</mask>
<g mask="url(#mask0_1023_19924)">
<path d="M43.4986 59.9524C44.3187 59.9524 45.006 59.6751 45.5607 59.1204C46.1154 58.5656 46.3928 57.8782 46.3928 57.0583C46.3928 56.2382 46.1154 55.5508 45.5607 54.9961C45.006 54.4414 44.3187 54.1641 43.4986 54.1641C42.6786 54.1641 41.9912 54.4414 41.4365 54.9961C40.8818 55.5508 40.6044 56.2382 40.6044 57.0583C40.6044 57.8782 40.8818 58.5656 41.4365 59.1204C41.9912 59.6751 42.6786 59.9524 43.4986 59.9524ZM43.4998 46.8595C44.2616 46.8595 44.8998 46.602 45.4143 46.0869C45.9288 45.5718 46.186 44.9336 46.186 44.1721V28.047C46.186 27.2856 45.9284 26.6473 45.4131 26.1322C44.8978 25.6171 44.2592 25.3595 43.4974 25.3595C42.7356 25.3595 42.0975 25.6171 41.583 26.1322C41.0685 26.6473 40.8112 27.2856 40.8112 28.047V44.1721C40.8112 44.9336 41.0688 45.5718 41.5841 46.0869C42.0995 46.602 42.738 46.8595 43.4998 46.8595ZM43.5046 77.0421C38.7963 77.0421 34.3708 76.1487 30.228 74.3618C26.0851 72.5749 22.4814 70.1499 19.4169 67.0868C16.3523 64.0235 13.9262 60.4214 12.1385 56.2804C10.3509 52.1394 9.45703 47.7148 9.45703 43.0066C9.45703 38.2983 10.3505 33.8728 12.1374 29.73C13.9243 25.5871 16.3493 21.9834 19.4124 18.9189C22.4756 15.8543 26.0778 13.4282 30.2188 11.6405C34.3597 9.85282 38.7843 8.95898 43.4926 8.95898C48.2009 8.95898 52.6264 9.85243 56.7692 11.6393C60.9121 13.4262 64.5158 15.8512 67.5803 18.9144C70.6449 21.9776 73.071 25.5797 74.8587 29.7207C76.6464 33.8617 77.5402 38.2863 77.5402 42.9946C77.5402 47.7028 76.6467 52.1284 74.8599 56.2712C73.073 60.414 70.6479 64.0177 67.5848 67.0823C64.5216 70.1469 60.9195 72.573 56.7784 74.3606C52.6375 76.1483 48.2129 77.0421 43.5046 77.0421ZM43.4986 71.6672C51.5014 71.6672 58.2799 68.8902 63.834 63.336C69.3882 57.7818 72.1653 51.0033 72.1653 43.0006C72.1653 34.9978 69.3882 28.2193 63.834 22.6651C58.2799 17.111 51.5014 14.3339 43.4986 14.3339C35.4958 14.3339 28.7174 17.111 23.1632 22.6651C17.609 28.2193 14.8319 34.9978 14.8319 43.0006C14.8319 51.0033 17.609 57.7818 23.1632 63.336C28.7174 68.8902 35.4958 71.6672 43.4986 71.6672Z" fill="#464646"/>
</g>
</svg>
