<svg width="7" height="12" viewBox="0 0 7 12" fill="none" xmlns="http://www.w3.org/2000/svg">
<path d="M6.12691 0.872625C6.2718 1.01749 6.34424 1.19313 6.34424 1.39953C6.34424 1.60593 6.2718 1.78156 6.12691 1.92642L2.05384 5.99953L6.12691 10.0726C6.2718 10.2175 6.34424 10.3931 6.34424 10.5995C6.34424 10.8059 6.2718 10.9816 6.12691 11.1264C5.98205 11.2713 5.80641 11.3437 5.60001 11.3437C5.39361 11.3437 5.21798 11.2713 5.07311 11.1264L0.578889 6.6322C0.485289 6.53862 0.419263 6.4399 0.380813 6.33605C0.342347 6.23222 0.323113 6.12004 0.323113 5.99953C0.323113 5.87901 0.342347 5.76683 0.380813 5.663C0.419263 5.55915 0.485289 5.46043 0.578889 5.36685L5.07311 0.872625C5.21798 0.727742 5.39361 0.6553 5.60001 0.6553C5.80641 0.6553 5.98205 0.727742 6.12691 0.872625Z" fill="#2E2E2E"/>
</svg>
