<svg width="7" height="12" viewBox="0 0 7 12" fill="none" xmlns="http://www.w3.org/2000/svg">
<path d="M6.12643 0.872625C6.27131 1.01749 6.34375 1.19313 6.34375 1.39953C6.34375 1.60593 6.27131 1.78156 6.12643 1.92642L2.05335 5.99953L6.12642 10.0726C6.27131 10.2175 6.34375 10.3931 6.34375 10.5995C6.34375 10.8059 6.27131 10.9816 6.12642 11.1264C5.98156 11.2713 5.80592 11.3437 5.59952 11.3437C5.39312 11.3437 5.21749 11.2713 5.07262 11.1264L0.578401 6.6322C0.484801 6.53862 0.418775 6.4399 0.380325 6.33605C0.341858 6.23222 0.322625 6.12004 0.322625 5.99953C0.322625 5.87901 0.341858 5.76683 0.380325 5.663C0.418775 5.55915 0.484801 5.46043 0.578401 5.36685L5.07263 0.872625C5.21749 0.727742 5.39313 0.6553 5.59953 0.6553C5.80593 0.6553 5.98156 0.727742 6.12643 0.872625Z" fill="#2E2E2E"/>
</svg>
