<svg width="18" height="20" viewBox="0 0 18 20" fill="none" xmlns="http://www.w3.org/2000/svg">
<path d="M15.0011 19.75C14.2375 19.75 13.5881 19.4826 13.0529 18.9479C12.5176 18.4132 12.25 17.7639 12.25 17C12.25 16.8751 12.2599 16.7459 12.2798 16.6121C12.2997 16.4784 12.3295 16.3551 12.3692 16.2423L4.97305 11.9115C4.70895 12.1743 4.40831 12.3798 4.07113 12.5279C3.73394 12.6759 3.37689 12.75 2.99997 12.75C2.23609 12.75 1.58679 12.4827 1.05207 11.9482C0.517358 11.4137 0.25 10.7647 0.25 10.0011C0.25 9.23753 0.517358 8.58813 1.05207 8.05288C1.58679 7.51763 2.23609 7.25 2.99997 7.25C3.37689 7.25 3.73394 7.32403 4.07113 7.4721C4.40831 7.62018 4.70895 7.82563 4.97305 8.08845L12.3692 3.75768C12.3295 3.64486 12.2997 3.52157 12.2798 3.38783C12.2599 3.25409 12.25 3.12481 12.25 2.99998C12.25 2.23609 12.5173 1.58679 13.0518 1.05208C13.5863 0.517359 14.2353 0.25 14.9989 0.25C15.7624 0.25 16.4118 0.51725 16.9471 1.05175C17.4823 1.58625 17.75 2.23528 17.75 2.99885C17.75 3.76242 17.4826 4.41182 16.9479 4.94707C16.4132 5.48233 15.7639 5.74995 15 5.74995C14.6231 5.74995 14.266 5.67592 13.9288 5.52785C13.5916 5.37977 13.291 5.17432 13.0269 4.9115L5.63073 9.24228C5.67048 9.35509 5.70028 9.47815 5.72015 9.61145C5.74002 9.74473 5.74995 9.87358 5.74995 9.99798C5.74995 10.1224 5.74002 10.2519 5.72015 10.3865C5.70028 10.5211 5.67048 10.6449 5.63073 10.7577L13.0269 15.0885C13.291 14.8256 13.5916 14.6202 13.9288 14.4721C14.266 14.324 14.6231 14.25 15 14.25C15.7639 14.25 16.4132 14.5173 16.9479 15.0518C17.4826 15.5863 17.75 16.2353 17.75 16.9989C17.75 17.7624 17.4827 18.4118 16.9482 18.9471C16.4137 19.4823 15.7647 19.75 15.0011 19.75ZM15 4.24998C15.3474 4.24998 15.6426 4.1285 15.8856 3.88555C16.1285 3.64258 16.25 3.34738 16.25 2.99995C16.25 2.65252 16.1285 2.35732 15.8856 2.11435C15.6426 1.87142 15.3474 1.74995 15 1.74995C14.6525 1.74995 14.3573 1.87143 14.1144 2.11438C13.8714 2.35734 13.75 2.65254 13.75 2.99998C13.75 3.34741 13.8714 3.64261 14.1144 3.88558C14.3573 4.12853 14.6525 4.24998 15 4.24998ZM2.99997 11.25C3.34741 11.25 3.64261 11.1285 3.88558 10.8856C4.12853 10.6426 4.25 10.3474 4.25 9.99995C4.25 9.65252 4.12853 9.35732 3.88558 9.11435C3.64261 8.87142 3.34741 8.74995 2.99997 8.74995C2.65254 8.74995 2.35734 8.87142 2.11438 9.11438C1.87143 9.35734 1.74995 9.65254 1.74995 9.99998C1.74995 10.3474 1.87143 10.6426 2.11438 10.8856C2.35734 11.1285 2.65254 11.25 2.99997 11.25ZM15 18.25C15.3474 18.25 15.6426 18.1285 15.8856 17.8855C16.1285 17.6426 16.25 17.3474 16.25 17C16.25 16.6525 16.1285 16.3573 15.8856 16.1144C15.6426 15.8714 15.3474 15.75 15 15.75C14.6525 15.75 14.3573 15.8714 14.1144 16.1144C13.8714 16.3573 13.75 16.6525 13.75 17C13.75 17.3474 13.8714 17.6426 14.1144 17.8856C14.3573 18.1285 14.6525 18.25 15 18.25Z" fill="#B1B1B1"/>
</svg>
