<svg width="22" height="15" viewBox="0 0 22 15" fill="none" xmlns="http://www.w3.org/2000/svg">
<path d="M11.0023 11.5769C12.1354 11.5769 13.0978 11.1803 13.8895 10.3871C14.6811 9.59394 15.077 8.6308 15.077 7.4977C15.077 6.36462 14.6804 5.40224 13.8872 4.61058C13.094 3.81891 12.1309 3.42308 10.9978 3.42308C9.86472 3.42308 8.90234 3.81966 8.11067 4.61282C7.31901 5.40601 6.92317 6.36915 6.92317 7.50225C6.92317 8.63533 7.31976 9.59771 8.11293 10.3894C8.90611 11.181 9.86925 11.5769 11.0023 11.5769ZM11.0001 10.2C10.2501 10.2 9.61257 9.93748 9.08757 9.41248C8.56258 8.88748 8.30007 8.24998 8.30007 7.49998C8.30007 6.74998 8.56258 6.11248 9.08757 5.58748C9.61257 5.06248 10.2501 4.79998 11.0001 4.79998C11.7501 4.79998 12.3876 5.06248 12.9126 5.58748C13.4376 6.11248 13.7001 6.74998 13.7001 7.49998C13.7001 8.24998 13.4376 8.88748 12.9126 9.41248C12.3876 9.93748 11.7501 10.2 11.0001 10.2ZM11.0014 14.5C8.70183 14.5 6.60651 13.8657 4.71547 12.5971C2.82446 11.3285 1.43216 9.62946 0.538574 7.49998C1.43216 5.37049 2.82401 3.67146 4.71412 2.40288C6.60422 1.13429 8.69908 0.5 10.9987 0.5C13.2983 0.5 15.3936 1.13429 17.2847 2.40288C19.1757 3.67146 20.568 5.37049 21.4616 7.49998C20.568 9.62946 19.1761 11.3285 17.286 12.5971C15.3959 13.8657 13.3011 14.5 11.0014 14.5Z" fill="#B1B1B1"/>
</svg>
