<svg width="22" height="19" viewBox="0 0 22 19" fill="none" xmlns="http://www.w3.org/2000/svg">
<path d="M18.7616 18.8691L14.7155 14.8537C14.2027 15.0435 13.6344 15.1986 13.0107 15.3191C12.3869 15.4396 11.7167 15.4999 11.0001 15.4999C8.65009 15.4999 6.53664 14.8537 4.65972 13.5614C2.78281 12.2691 1.40909 10.582 0.538574 8.49992C0.907808 7.61659 1.38473 6.79255 1.96935 6.0278C2.55397 5.26306 3.19756 4.59993 3.90012 4.0384L1.13087 1.2384L2.18472 0.18457L19.8154 17.8153L18.7616 18.8691ZM11.0001 12.5768C11.2091 12.5768 11.4232 12.5589 11.6424 12.523C11.8616 12.4871 12.0565 12.4345 12.227 12.3653L7.13472 7.27297C7.06549 7.4563 7.01292 7.65599 6.97702 7.87202C6.94112 8.08805 6.92317 8.29735 6.92317 8.49992C6.92317 9.63452 7.31901 10.5977 8.11067 11.3893C8.90234 12.181 9.86548 12.5768 11.0001 12.5768ZM17.9539 13.0845L14.8174 9.97297C14.8956 9.76015 14.9584 9.53195 15.0058 9.28837C15.0533 9.04479 15.077 8.78197 15.077 8.49992C15.077 7.36532 14.6811 6.40219 13.8895 5.61052C13.0978 4.81885 12.1347 4.42302 11.0001 4.42302C10.718 4.42302 10.4584 4.44835 10.2212 4.499C9.98407 4.54963 9.75587 4.62559 9.53665 4.72687L7.03472 2.23457C7.66677 1.98329 8.31228 1.79803 8.97125 1.6788C9.63022 1.55956 10.3065 1.49995 11.0001 1.49995C13.3437 1.49995 15.4571 2.1461 17.3404 3.4384C19.2238 4.73071 20.5975 6.41789 21.4616 8.49992C21.0911 9.3935 20.6125 10.2275 20.026 11.0018C19.4395 11.7762 18.7488 12.4704 17.9539 13.0845ZM13.6847 8.84992L10.6751 5.84992C11.1161 5.76659 11.5324 5.79928 11.9241 5.948C12.3158 6.09671 12.6533 6.31786 12.9366 6.61145C13.2263 6.90505 13.4385 7.24928 13.5732 7.64415C13.7078 8.03901 13.745 8.44094 13.6847 8.84992Z" fill="#2E2E2E"/>
</svg>
