<?xml version="1.0" standalone="no"?>
<!DOCTYPE svg PUBLIC "-//W3C//DTD SVG 20010904//EN"
 "http://www.w3.org/TR/2001/REC-SVG-20010904/DTD/svg10.dtd">
<svg version="1.0" xmlns="http://www.w3.org/2000/svg"
 width="22.000000pt" height="19.000000pt" viewBox="0 0 22.000000 19.000000"
 preserveAspectRatio="xMidYMid meet">

<g transform="translate(0.000000,19.000000) scale(0.100000,-0.100000)"
fill="#000000" stroke="none">
<path d="M29 161 c8 -14 7 -22 -4 -31 -22 -18 -19 -33 13 -63 21 -20 38 -27
68 -27 22 0 51 -7 64 -16 14 -9 -13 22 -60 70 -46 47 -86 86 -88 86 -1 0 2 -9
7 -19z m87 -99 c-9 -8 -46 20 -46 35 0 13 5 12 25 -7 14 -13 23 -25 21 -28z"/>
<path d="M80 162 c0 -4 15 -12 33 -17 24 -8 33 -16 35 -37 2 -14 10 -32 18
-39 12 -10 17 -8 29 7 21 27 18 40 -12 69 -20 17 -39 25 -65 25 -21 0 -38 -4
-38 -8z"/>
<path d="M115 120 c3 -5 8 -10 11 -10 2 0 4 5 4 10 0 6 -5 10 -11 10 -5 0 -7
-4 -4 -10z"/>
</g>
</svg>
